<?xml version="1.0" standalone="no"?>
<!DOCTYPE svg PUBLIC "-//W3C//DTD SVG 1.1//EN" "http://www.w3.org/Graphics/SVG/1.1/DTD/svg11.dtd" >
<svg xmlns="http://www.w3.org/2000/svg">
<metadata></metadata>
<defs>
<font id="volkhovitalic" horiz-adv-x="1316" >
<font-face units-per-em="2048" ascent="1638" descent="-410" />
<missing-glyph horiz-adv-x="493" />
<glyph horiz-adv-x="2048" />
<glyph horiz-adv-x="2048" />
<glyph unicode="&#xd;" horiz-adv-x="0" />
<glyph unicode=" "  horiz-adv-x="493" />
<glyph unicode="&#x09;" horiz-adv-x="493" />
<glyph unicode="&#xa0;" horiz-adv-x="493" />
<glyph unicode="!" horiz-adv-x="571" d="M37 125q0 55 41 95t98 40q55 0 95 -40t40 -95q0 -59 -40 -99t-95 -40q-57 0 -98 40t-41 99zM168 426l213 1008h197l-293 -1008h-117z" />
<glyph unicode="&#x22;" horiz-adv-x="747" d="M238 969l53 481h213l-162 -481h-104zM590 969l53 481h213l-162 -481h-104z" />
<glyph unicode="#" horiz-adv-x="1126" d="M47 0l160 412h-152l31 131h172l154 391h-191l31 131h211l145 369h131l-145 -369h248l145 369h131l-147 -369h170l-29 -131h-190l-156 -391h209l-31 -131h-229l-160 -412h-131l160 412h-248l-160 -412h-129zM387 543h250l154 391h-248z" />
<glyph unicode="$" horiz-adv-x="1153" d="M10 82l115 377h80v-330q86 -35 190 -35l140 563l-97 72q-76 57 -128 140t-52 184q0 190 143 293q131 96 330 102l35 143h119l-37 -143q164 -12 289 -64l-113 -376h-78v313q-49 12 -125 16l-133 -530l33 -25q68 -55 127 -109.5t98 -130t39 -159.5q0 -199 -147 -299 q-133 -88 -355 -96l-39 -158h-114l39 158q-201 12 -359 94zM455 1104q0 -59 38.5 -116.5t96.5 -102.5l110 446q-83 -12 -149 -49q-96 -53 -96 -178zM512 102q81 15 147 52q109 61 109 188q0 82 -53 152q-35 47 -84 88z" />
<glyph unicode="%" horiz-adv-x="1484" d="M193 0l1034 1436h133l-1030 -1436h-137zM199 967q0 199 100 341t270 142q92 0 146.5 -54.5t54.5 -156.5q0 -199 -100.5 -341t-270.5 -142q-92 0 -146 54.5t-54 156.5zM348 965q0 -145 76 -146q80 0 139.5 141.5t59.5 280.5q0 143 -76 143q-82 0 -140.5 -133.5 t-58.5 -285.5zM772 195q0 199 100.5 341t270.5 142q92 0 147.5 -54.5t55.5 -154.5q0 -199 -101.5 -341t-271.5 -142q-92 0 -146.5 53.5t-54.5 155.5zM922 195q0 -145 75 -146q80 0 139.5 141.5t59.5 278.5q0 145 -76 145q-82 0 -140 -133.5t-58 -285.5z" />
<glyph unicode="&#x26;" horiz-adv-x="1554" d="M94 354q0 201 133 331t353 157l2 4q-100 20 -160 90t-60 162q0 164 129.5 258t348.5 94q154 0 240.5 -52t86.5 -138q0 -74 -56 -109t-136 -35q-18 0 -27 2q18 49 19 94q0 66 -37 110t-109 44q-106 0 -177 -82t-71 -199q0 -98 64.5 -153t183.5 -55l-12 -105 q-78 0 -161 -22.5t-159.5 -66.5t-126 -123t-49.5 -179q0 -125 81 -195.5t233 -70.5q188 0 336.5 125t216.5 280h-60q-190 0 -274 -22.5t-164 -116.5q0 2 -19.5 15.5t-21.5 13.5q37 76 93.5 127t129 74.5t138 32.5t149.5 9h70q115 0 196.5 26t110.5 109q47 -35 47 -112 q0 -66 -53.5 -111t-175.5 -45h-62q-100 -246 -283.5 -390t-455.5 -144q-213 0 -332 97t-119 271z" />
<glyph unicode="'" horiz-adv-x="395" d="M238 969l53 481h213l-162 -481h-104z" />
<glyph unicode="(" horiz-adv-x="653" d="M16 166q0 426 215 820t586 650l45 -59q-313 -274 -491 -655t-178 -816q0 -414 176 -659l-58 -59q-295 301 -295 778z" />
<glyph unicode=")" horiz-adv-x="649" d="M-254 -553q311 274 490.5 655t179.5 816q0 416 -178 659l57 59q295 -299 295 -778q0 -426 -215 -820t-584 -650z" />
<glyph unicode="*" horiz-adv-x="983" d="M242 1219l47 143l286 -115l-20 309h152l-21 -309l287 113l47 -141l-299 -80l197 -238l-121 -90l-166 262l-164 -262l-125 90l199 240z" />
<glyph unicode="+" horiz-adv-x="1138" d="M131 662v137h399v399h138v-399h403v-137h-403v-402h-138v402h-399z" />
<glyph unicode="," horiz-adv-x="471" d="M-168 -291q160 129 250 297l-98 103q0 57 41 97t98 40t97 -39t40 -98t-37 -126t-93 -130.5t-123.5 -116.5t-127.5 -86z" />
<glyph unicode="-" horiz-adv-x="753" d="M143 481v158h449v-158h-449z" />
<glyph unicode="." horiz-adv-x="473" d="M-10 125q0 55 41 95t98 40q55 0 95 -40t40 -95q0 -59 -40 -99t-95 -40q-57 0 -98 40t-41 99z" />
<glyph unicode="/" horiz-adv-x="886" d="M-72 0l955 1434h135l-955 -1434h-135z" />
<glyph unicode="0" horiz-adv-x="1251" d="M113 428q0 184 52 366.5t143 328t228.5 236.5t294.5 91q182 0 273.5 -115.5t91.5 -324.5q0 -260 -87 -492.5t-254 -382t-378 -149.5q-184 0 -274 120.5t-90 321.5zM319 414q0 -145 46.5 -234.5t138.5 -89.5q131 0 246.5 156.5t177 370.5t61.5 405q0 145 -46 232t-140 87 q-131 0 -246 -146t-176.5 -358t-61.5 -423z" />
<glyph unicode="1" horiz-adv-x="710" d="M139 0l320 1251l-256 -104l-13 74l463 227h52l-363 -1448h-203z" />
<glyph unicode="2" horiz-adv-x="1081" d="M-37 0l27 123l618 653q80 90 112 142.5t54.5 112t22.5 116.5q0 94 -47.5 155.5t-141.5 61.5q-88 0 -140 -60.5t-52 -154.5q0 -53 14 -105q-29 -4 -39 -4q-72 0 -118 39t-46 111q0 115 105.5 187.5t283.5 72.5q174 0 278.5 -79t104.5 -220q0 -84 -28.5 -154.5t-102 -155.5 t-151.5 -161l-512 -502h520l149 221h82l-139 -399h-854z" />
<glyph unicode="3" horiz-adv-x="1112" d="M-27 115l41 80q162 -100 336 -101q80 0 149.5 22.5t122 64.5t83 102.5t30.5 134.5q0 141 -80 214t-260 75l25 102q80 2 150.5 28.5t122.5 76t82 118t30 152.5q0 80 -47 131t-129 51q-102 0 -157.5 -57.5t-55.5 -155.5q0 -51 14 -100q-25 -6 -45 -6q-59 0 -103 38.5 t-44 106.5q0 61 31.5 109.5t84 81t121 50t141.5 17.5q80 0 151 -18.5t124 -54.5t84 -91t31 -129q0 -147 -97.5 -248.5t-263.5 -150.5v-4q143 -23 221 -103t78 -202q0 -106 -41 -191.5t-111.5 -146t-166 -93t-201.5 -32.5q-246 0 -451 129z" />
<glyph unicode="4" horiz-adv-x="1126" d="M-39 362l19 72l995 1014h102l-235 -950h151l-35 -136h-151l-90 -362h-199l90 362h-647zM197 498h446l148 596z" />
<glyph unicode="5" horiz-adv-x="1042" d="M-66 72l56 84q111 -57 235 -58q190 0 331.5 122t141.5 323q0 104 -66.5 178t-201.5 74q-98 0 -184 -19l-37 29l209 629h416q188 0 294 122l13 17l55 -31l-57 -86q-18 -27 -60.5 -71t-82.5 -64.5t-105.5 -36.5t-145.5 -16h-266l-121 -373l19 6q106 27 192 27 q176 0 262.5 -101.5t86.5 -240.5q0 -238 -195 -419t-463 -181q-100 0 -182 21.5t-113 41.5z" />
<glyph unicode="6" horiz-adv-x="1103" d="M88 403q0 256 115.5 481.5t338 379t507.5 186.5l12 -96q-258 -49 -448.5 -212t-280.5 -394q166 129 352 129q156 0 236.5 -95.5t80.5 -240.5q0 -236 -150.5 -395.5t-395.5 -159.5q-178 0 -272.5 115.5t-94.5 301.5zM266 408q0 -145 57.5 -233.5t159.5 -88.5 q123 0 214 127t91 291q0 98 -49 162.5t-149 64.5q-141 0 -295 -98q-29 -108 -29 -225z" />
<glyph unicode="7" horiz-adv-x="944" d="M145 0q115 311 326 660.5t430 594.5h-520l-143 -211h-82l133 390h805l-29 -129q-504 -659 -707 -1305h-213z" />
<glyph unicode="8" horiz-adv-x="1183" d="M94 264q0 152 110.5 281t272.5 219q-170 152 -170 299q0 172 135.5 279.5t325.5 107.5q160 0 254 -70.5t94 -197.5q0 -139 -91 -237.5t-239 -180.5q98 -82 149.5 -160t51.5 -184q0 -203 -152.5 -318.5t-381.5 -115.5q-147 0 -253 73.5t-106 204.5zM285 291 q0 -98 61.5 -152.5t153.5 -54.5q129 0 215 76t86 196q0 45 -15.5 88t-34 72t-59.5 68t-62.5 57t-74.5 59q-113 -78 -191.5 -184t-78.5 -225zM498 1137q0 -61 33.5 -121t70.5 -95.5t109 -95.5q227 154 227 338q0 90 -61.5 138.5t-145.5 48.5q-94 0 -163.5 -58.5t-69.5 -154.5 z" />
<glyph unicode="9" horiz-adv-x="1103" d="M102 80q258 49 448.5 212t280.5 394q-166 -129 -352 -129q-156 0 -236.5 95.5t-80.5 240.5q0 236 150.5 395.5t396.5 159.5q178 0 272 -115.5t94 -302.5q0 -256 -115.5 -481t-338 -379t-506.5 -186zM375 930q0 -98 49 -163t149 -65q141 0 295 99q29 109 29 225 q0 145 -57.5 233.5t-159.5 88.5q-123 0 -214 -127t-91 -291z" />
<glyph unicode=":" horiz-adv-x="473" d="M20 125q0 55 41 95t99 40q55 0 95 -40t40 -95q0 -59 -40 -99t-95 -40q-57 0 -98.5 40t-41.5 99zM199 807q0 55 41 95t98 40q55 0 95 -40t40 -95q0 -59 -40 -99t-95 -40q-57 0 -98 40t-41 99z" />
<glyph unicode=";" horiz-adv-x="563" d="M-133 -272q160 129 250 297l-99 102q0 57 41 97t99 40q57 0 97 -39t40 -98t-37 -126t-93 -130.5t-124 -116.5t-127 -86zM201 807q0 55 41 95t98 40q55 0 95 -40t40 -95q0 -59 -40 -99t-95 -40q-57 0 -98 40t-41 99z" />
<glyph unicode="&#x3c;" horiz-adv-x="1187" d="M123 676v112l878 474v-158l-688 -373l688 -369v-157z" />
<glyph unicode="=" horiz-adv-x="1222" d="M141 494v137h940v-137h-940zM141 831v138h940v-138h-940z" />
<glyph unicode="&#x3e;" horiz-adv-x="1183" d="M250 205v157l688 369l-688 373v158l878 -474v-112z" />
<glyph unicode="?" horiz-adv-x="956" d="M231 125q0 55 41 95t99 40q55 0 95 -40t40 -95q0 -59 -40 -99t-95 -40q-57 0 -98.5 40t-41.5 99zM242 1208q0 104 106.5 173t294.5 69q154 0 252 -69.5t98 -190.5q0 -109 -61.5 -188.5t-148.5 -126t-175 -85t-149.5 -93t-61.5 -124.5q0 -45 26 -72.5t64 -27.5 q49 0 101 39l49 -63q-68 -66 -172 -66q-76 0 -136.5 51t-60.5 137q0 92 53.5 164t129.5 119l153 92q76 45 129 109.5t53 148.5q0 76 -46 118t-122 42q-82 0 -130 -57.5t-48 -149.5q0 -39 15 -102q-96 0 -154.5 38.5t-58.5 114.5z" />
<glyph unicode="@" horiz-adv-x="1792" d="M115 475q0 410 263 692.5t687 282.5q295 0 487.5 -167t192.5 -431q0 -289 -210 -476.5t-519 -187.5q-55 0 -55 48q0 35 38 122q-156 -170 -325 -170q-76 0 -124 51.5t-48 159.5q0 279 184 480.5t420 201.5q160 0 299 -80l-246 -704q193 29 338 182.5t145 372.5 q0 225 -165.5 367.5t-415.5 142.5q-227 0 -405.5 -125t-270.5 -321.5t-92 -421.5q0 -287 176 -454t451 -167q195 0 387 78l34 -70q-217 -121 -483 -121q-317 0 -530 186.5t-213 528.5zM698 446q0 -127 82 -127q61 0 139 63.5t144 156.5l156 446q-37 12 -86 12 q-170 0 -302.5 -167t-132.5 -384z" />
<glyph unicode="A" d="M-160 0l21 84l188 45l778 1305h113l96 -1307l162 -43l-20 -84h-512l20 84l156 37l-25 291h-469l-174 -285l162 -43l-21 -84h-475zM418 522h389l-37 596z" />
<glyph unicode="B" horiz-adv-x="1292" d="M-41 0l21 84l188 45l293 1176l-166 45l20 84h478q180 0 287.5 -75t107.5 -226q0 -137 -85 -242t-224 -139l-2 -7q111 -31 175 -111.5t64 -191.5q0 -213 -166 -327.5t-399 -114.5h-592zM360 115h179q158 4 265 94t107 246q0 102 -65.5 165.5t-183.5 63.5h-158zM532 803 h113q139 4 236.5 95t97.5 230q0 190 -217 191h-100z" />
<glyph unicode="C" horiz-adv-x="1259" d="M113 489q0 238 100 457t290.5 361.5t426.5 142.5q115 0 214 -20.5t142 -40.5l41 -21l-94 -379h-80l-12 322q-86 20 -152 20q-190 0 -346 -115.5t-241 -305t-85 -408.5q0 -166 70 -277.5t236 -111.5q90 0 180 18l233 332h80l-145 -377q-193 -100 -379 -100 q-131 0 -227.5 41t-149.5 112.5t-77.5 158.5t-24.5 191z" />
<glyph unicode="D" horiz-adv-x="1427" d="M-41 0l21 84l188 45l293 1176l-166 45l20 84h443q301 0 455.5 -128t154.5 -378q0 -225 -78 -405.5t-213 -293t-307 -171t-369 -58.5h-442zM365 127h67q322 0 527.5 235.5t205.5 573.5q0 371 -438 371h-68z" />
<glyph unicode="E" horiz-adv-x="1214" d="M-41 0l21 84l188 45l293 1176l-166 45l20 84h953l-105 -420h-78l-12 293h-414l-133 -527l416 41l-41 -172l-397 37l-139 -559h411l223 315h78l-166 -442h-952z" />
<glyph unicode="F" horiz-adv-x="1128" d="M-41 0l21 84l188 45l293 1176l-166 45l20 84h953l-105 -420h-78l-12 293h-414l-133 -527l416 41l-41 -172l-397 37l-139 -557l206 -45l-20 -84h-592z" />
<glyph unicode="G" horiz-adv-x="1368" d="M111 483q0 262 111.5 482.5t315 352.5t455.5 132q178 0 371 -80l-94 -379h-78l-14 328q-88 18 -168 18q-305 0 -499 -245.5t-194 -595.5q0 -199 106.5 -295.5t281.5 -96.5q53 0 145 19l102 412l-202 71l16 64h561l-16 -64l-162 -71l-113 -449q-211 -100 -407 -100 q-223 0 -370.5 122.5t-147.5 374.5z" />
<glyph unicode="H" horiz-adv-x="1576" d="M-41 0l21 84l188 45l293 1176l-166 45l20 84h553l-20 -84l-191 -45l-129 -517h613l129 517l-164 45l20 84h551l-20 -84l-189 -45l-292 -1176l165 -45l-20 -84h-551l21 84l186 45l133 533h-612l-133 -533l167 -45l-20 -84h-553z" />
<glyph unicode="I" horiz-adv-x="768" d="M-41 0l21 84l188 45l293 1176l-166 45l20 84h553l-20 -84l-191 -45l-292 -1176l167 -45l-20 -84h-553z" />
<glyph unicode="J" horiz-adv-x="727" d="M-170 -238q276 180 369 545l247 998l-163 45l20 84h553l-20 -84l-191 -45l-248 -998q-53 -215 -215 -379t-327 -233z" />
<glyph unicode="K" horiz-adv-x="1361" d="M-41 0l21 84l188 45l293 1176l-166 45l20 84h553l-20 -84l-191 -45l-292 -1176l167 -45l-20 -84h-553zM561 745l576 560l-125 45l20 84h488l-21 -84l-166 -41l-573 -545l104 -240q111 -254 172.5 -332.5t200.5 -121.5l-23 -84q-141 6 -232 55t-153.5 140t-140.5 272z" />
<glyph unicode="L" horiz-adv-x="1153" d="M-41 0l21 84l188 45l293 1176l-166 45l20 84h553l-20 -84l-191 -45l-292 -1178h411l223 315h78l-166 -442h-952z" />
<glyph unicode="M" horiz-adv-x="1921" d="M-80 0l21 84l194 47l359 1176l-160 43l20 84h369l164 -1090l692 1090h401l-20 -84l-182 -43l-232 -1178l176 -45l-20 -84h-555l20 84l181 43l202 1022l-739 -1159h-63l-175 1161l-305 -1024l162 -43l-20 -84h-490z" />
<glyph unicode="N" horiz-adv-x="1517" d="M-41 0l21 84l188 45l293 1176l-166 45l20 84h279l481 -1024l223 895l-163 45l20 84h485l-20 -84l-190 -45l-324 -1305h-53l-514 1090l-240 -961l166 -45l-21 -84h-485z" />
<glyph unicode="O" horiz-adv-x="1472" d="M111 477q0 248 100 469t291.5 362.5t429.5 141.5q240 0 363.5 -138t123.5 -356q0 -182 -59.5 -356t-162.5 -311t-260 -220t-337 -83q-240 0 -364.5 138t-124.5 353zM319 459q0 -168 75 -266.5t222 -98.5q139 0 255 86t187.5 220.5t111.5 286t40 292.5q0 166 -75.5 262 t-223.5 96q-135 0 -251.5 -86t-188.5 -219t-112 -283.5t-40 -289.5z" />
<glyph unicode="P" horiz-adv-x="1196" d="M-41 0l21 84l188 45l293 1176l-166 45l20 84h478q199 0 318.5 -91.5t119.5 -265.5q0 -254 -172 -395t-443 -141q-72 0 -145 12l-106 -424l225 -45l-21 -84h-610zM500 672q57 -8 129 -8q180 0 288.5 109.5t108.5 295.5q0 117 -66.5 181.5t-195.5 64.5h-102z" />
<glyph unicode="Q" horiz-adv-x="1470" d="M111 477q0 248 100 469t291.5 362.5t429.5 141.5q240 0 363.5 -138t123.5 -356q0 -182 -58 -356t-162.5 -308t-220.5 -200.5t-216 -89.5q104 -23 201 -80l184 -115q84 -49 172 -49q133 0 227 133l53 -30q-76 -154 -154.5 -222.5t-174.5 -68.5q-70 0 -132.5 30.5 t-117.5 80.5l-115 106q-59 55 -143 110.5t-182 88.5q-225 6 -347 141t-122 350zM319 459q0 -168 75 -266.5t222 -98.5q139 0 255 86t187.5 220.5t111.5 286t40 292.5q0 166 -75.5 262t-223.5 96q-135 0 -251.5 -86t-188.5 -219t-112 -283.5t-40 -289.5z" />
<glyph unicode="R" d="M-41 0l21 84l188 45l293 1176l-166 45l20 84h496q197 0 313.5 -82t116.5 -240q0 -190 -114.5 -306t-290.5 -136l57 -193q49 -174 113.5 -271t195.5 -136l-22 -84q-197 8 -298.5 113.5t-162.5 306.5l-74 233l-153 -2l-127 -508l167 -45l-20 -84h-553zM520 750h121 q168 2 281.5 96t113.5 262q0 98 -65.5 152.5t-188.5 54.5h-120z" />
<glyph unicode="S" horiz-adv-x="1128" d="M-2 82l115 377h80v-330q90 -35 198 -35q150 0 257.5 60.5t107.5 187.5q0 82 -52.5 152.5t-128.5 123.5l-149 111q-74 57 -127 140t-53 184q0 190 143 293.5t367 103.5q213 0 368 -66l-112 -376h-78v313q-59 16 -158 16q-141 0 -237.5 -54t-96.5 -179q0 -59 39 -116.5 t99 -102.5l129 -103q70 -55 128 -109.5t97 -130t39 -159.5q0 -199 -146.5 -298t-400.5 -99q-242 0 -428 96z" />
<glyph unicode="T" horiz-adv-x="1214" d="M164 999l108 435h1086l-109 -435h-78l-10 308h-276l-295 -1178l166 -45l-21 -84h-553l21 84l188 45l295 1178h-278l-164 -308h-80z" />
<glyph unicode="U" horiz-adv-x="1509" d="M199 346q0 92 28 205l189 754l-166 45l20 84h553l-20 -84l-191 -45l-188 -754q-29 -119 -29 -174q0 -125 80 -185.5t217 -60.5q156 0 268.5 110.5t161.5 309.5l189 754l-164 45l20 84h486l-21 -84l-190 -45l-189 -754q-70 -283 -232.5 -424t-404.5 -141q-186 0 -301.5 90 t-115.5 270z" />
<glyph unicode="V" horiz-adv-x="1310" d="M174 1350l21 84h516l-21 -84l-158 -35l78 -1016l559 1006l-143 45l21 84h475l-21 -84l-188 -45l-733 -1319h-144l-102 1319z" />
<glyph unicode="W" horiz-adv-x="1929" d="M172 1350l21 84h512l-21 -84l-158 -37l45 -973l555 1094h125l58 -1092l471 963l-162 45l20 84h490l-21 -84l-188 -45l-645 -1319h-141l-60 1071l-541 -1071h-141l-61 1321z" />
<glyph unicode="X" horiz-adv-x="1341" d="M-152 0l21 84l188 45l549 612l-196 562l-164 47l20 84h494l-21 -84l-129 -33l158 -449l381 441l-150 41l21 84h510l-21 -84l-190 -45l-504 -570l213 -608l164 -43l-21 -84h-495l20 84l129 31l-172 491l-424 -481l150 -41l-21 -84h-510z" />
<glyph unicode="Y" horiz-adv-x="1259" d="M158 1350l20 84h486l-21 -84l-131 -27l190 -535l418 521l-151 41l20 84h473l-20 -84l-156 -45l-530 -654l-129 -522l180 -45l-21 -84h-550l20 84l172 45l127 512l-246 668z" />
<glyph unicode="Z" horiz-adv-x="1245" d="M-41 0l31 127l1020 1180h-547l-158 -293h-78l105 420h962l-30 -127l-1018 -1180h581l222 315h79l-165 -442h-1004z" />
<glyph unicode="[" horiz-adv-x="653" d="M-31 -262l453 1818h430l-25 -102h-239l-404 -1614h240l-25 -102h-430z" />
<glyph unicode="\" horiz-adv-x="743" d="M326 -248l10 1804h102v-1804h-112z" />
<glyph unicode="]" horiz-adv-x="651" d="M-174 -262l24 102h238l404 1614h-238l25 102h428l-453 -1818h-428z" />
<glyph unicode="^" horiz-adv-x="1144" d="M219 547l631 917h84l178 -917h-129l-131 729l-490 -729h-143z" />
<glyph unicode="_" horiz-adv-x="1585" d="M115 -160h940v-131h-940v131z" />
<glyph unicode="`" horiz-adv-x="358" d="M-80 1464q72 86 193 107l206 -361l-71 -55z" />
<glyph unicode="a" horiz-adv-x="1161" d="M49 281q0 315 189.5 536t457.5 221q190 0 334 -94l-207 -803h205v-65q-152 -47 -230.5 -68.5t-105.5 -21.5q-71 0 -71 59q0 33 14 86l18 74q-172 -219 -377 -219q-98 0 -162.5 71.5t-64.5 223.5zM250 326q0 -199 127 -199q70 0 163 78t162 186l142 543q-43 14 -103 14 q-143 0 -258.5 -97t-174 -237.5t-58.5 -287.5z" />
<glyph unicode="b" horiz-adv-x="1105" d="M33 80l375 1417h-205v66q152 47 230.5 68.5t105.5 21.5q71 0 71 -60q0 -33 -14 -86l-180 -682q170 213 370 213q98 0 163 -71.5t65 -223.5q0 -315 -189.5 -536t-457.5 -221q-191 0 -334 94zM219 90q43 -14 103 -14q143 0 258.5 97t174 237.5t58.5 287.5q0 199 -127 199 q-70 0 -160 -76t-161 -182z" />
<glyph unicode="c" horiz-adv-x="946" d="M55 348q0 123 40 244t113 221t187.5 162.5t251.5 62.5q127 0 206 -48t79 -118q0 -61 -50.5 -103t-131.5 -44q-8 31 -19.5 80t-16.5 67.5t-16.5 43t-25 32.5t-35.5 8q-143 0 -257 -170t-114 -421q0 -127 57.5 -203t184.5 -76q100 0 240 53l20 -63q-180 -90 -373 -90 q-160 0 -250 94t-90 268z" />
<glyph unicode="d" horiz-adv-x="1171" d="M49 281q0 315 189.5 536t457.5 221q86 0 162 -20l117 477h-205v66q152 49 233.5 70.5t104.5 21.5q72 0 72 -64q0 -20 -15 -84l-334 -1364h205v-65q-152 -47 -230.5 -68.5t-107.5 -21.5q-71 0 -71 59q0 33 14 86l21 84q-178 -229 -386 -229q-98 0 -162.5 71.5t-64.5 223.5 zM250 326q0 -199 127 -199q72 0 166 81t162 189l133 539q-47 12 -97 12q-143 0 -258.5 -97t-174 -237.5t-58.5 -287.5z" />
<glyph unicode="e" horiz-adv-x="968" d="M49 332q0 98 26.5 197.5t81 190.5t128 161.5t176 113.5t219.5 43q115 0 185.5 -52t70.5 -152q0 -76 -44 -138.5t-107.5 -105.5t-162 -80t-179.5 -58.5t-187 -43.5q-2 -18 -2 -56q0 -266 231 -266q106 0 252 55l21 -63q-184 -92 -377 -92q-332 0 -332 346zM266 487 q469 170 469 367q0 109 -96 109q-123 0 -230.5 -143t-142.5 -333z" />
<glyph unicode="f" horiz-adv-x="712" d="M-629 -453q0 98 156 183q45 -125 52 -142.5t24.5 -50.5t32 -44t39 -22.5t55.5 -11.5q96 0 179 104.5t130 301.5l256 1055h-152l17 67l153 12l43 175q63 254 217 366.5t349 112.5q331 0 331 -169q0 -103 -147 -171l-64 133q-31 66 -71 94q-20 14 -41 18.5t-37 4.5 q-254 0 -363 -441l-26 -108l299 24l-31 -118h-291l-258 -1059q-119 -492 -538 -492q-141 0 -227.5 49t-86.5 129z" />
<glyph unicode="g" horiz-adv-x="1112" d="M-109 -453q0 98 156 183q8 -20 26.5 -72.5t25.5 -70t24.5 -50.5t33 -44t41 -22.5t56.5 -11.5q217 0 332 453l76 305q-176 -231 -386 -231q-98 0 -162.5 71.5t-64.5 223.5q0 315 189.5 536t457.5 221q190 0 334 -94l-270 -1083q-70 -279 -210 -385.5t-339 -106.5 q-141 0 -230.5 50t-89.5 128zM250 326q0 -199 127 -199q74 0 168 82t164 192l135 533q-43 14 -103 14q-143 0 -258.5 -97t-174 -237.5t-58.5 -287.5z" />
<glyph unicode="h" horiz-adv-x="1173" d="M25 -14l376 1511h-204v66q152 47 230.5 68.5t107.5 21.5q71 0 71 -60q0 -33 -14 -86l-189 -743q203 274 414 274q190 0 191 -200q0 -96 -52 -273l-122 -424h204v-65q-152 -47 -230.5 -68.5t-107.5 -21.5q-71 0 -71 59q0 33 14 86l145 504q27 102 28 120.5t1 35.5 q0 98 -76 98q-78 0 -192.5 -92t-190.5 -215l-145 -582z" />
<glyph unicode="i" horiz-adv-x="641" d="M92 45q-1 5 -1 10q0 13 4 27q5 20 11 47l193 756h-207v63q283 90 338 90q74 0 74 -59q0 -23 -17 -84l-188 -756h205v-63q-270 -90 -338 -90q-74 0 -74 59zM340 1319q0 55 39 93t94 38t93 -38t38 -93q0 -57 -38 -95t-93 -38t-94 38t-39 95z" />
<glyph unicode="j" horiz-adv-x="606" d="M-618 -453q0 98 155 183q8 -20 26.5 -72.5t26 -70t24.5 -50.5t32.5 -44t40 -22.5t55.5 -11.5q90 0 182 98.5t154 354.5l235 971h-204v65q152 47 230.5 68.5t106.5 21.5q72 0 72 -61q0 -29 -14 -84l-256 -1032q-121 -492 -545 -492q-143 0 -232 50t-89 128zM371 1319 q0 55 39 93t94 38t93 -38t38 -93q0 -57 -38 -95t-93 -38t-94 38t-39 95z" />
<glyph unicode="k" horiz-adv-x="1095" d="M25 -14l374 1511h-204v66q152 47 230.5 68.5t106.5 21.5q72 0 72 -62q0 -20 -14 -84l-377 -1507zM383 532q399 182 399 299q0 55 -75 154q66 53 149 53q133 0 133 -123q0 -186 -395 -385l106 -196q78 -141 127.5 -194.5t147.5 -84.5l-17 -69q-158 0 -239.5 43t-159.5 184 z" />
<glyph unicode="l" horiz-adv-x="606" d="M59 45q0 27 17 84l340 1368h-205v66q150 47 227.5 68.5t110.5 21.5q72 0 72 -62q0 -25 -17 -84l-340 -1368h205v-63q-270 -90 -338 -90q-72 0 -72 59z" />
<glyph unicode="m" horiz-adv-x="1779" d="M74 -14l225 897h-205v65q154 47 231.5 68.5t106.5 21.5q72 0 72 -61q0 -16 -4 -36.5t-11 -47.5l-26 -102q179 247 381 247h2q192 0 192 -202q0 -8 -1 -20.5t-3 -31.5q184 254 387 254q193 0 193 -204q0 -129 -176 -693h204v-65q-152 -47 -227.5 -68.5t-109.5 -21.5 q-72 0 -72 61q0 35 14 84q172 586 172 662q0 94 -73 94q-37 0 -83 -23.5t-93.5 -62.5t-92.5 -90.5t-82 -108.5l-161 -602l-195 -14l156 573q49 180 49 234q0 94 -74 94q-37 0 -83 -24.5t-95 -64.5t-96 -94.5t-84 -111.5l-150 -592z" />
<glyph unicode="n" horiz-adv-x="1224" d="M76 -14l223 897h-205v65q154 47 231.5 68.5t106.5 21.5q72 0 72 -61q0 -16 -4 -36.5t-11 -47.5l-32 -127q205 272 411 272q190 0 191 -200q0 -102 -51 -273l-123 -424h205v-65q-154 -47 -232 -68.5t-106 -21.5q-72 0 -72 61q0 35 14 84q156 539 165 583t9 77q0 96 -75 96 q-37 0 -87.5 -25.5t-103.5 -67.5t-103 -97.5t-87 -112.5l-148 -584z" />
<glyph unicode="o" horiz-adv-x="1101" d="M53 360q0 168 73 321t215 255t323 102q168 0 254 -100t86 -276q0 -166 -73 -320t-216.5 -255t-323.5 -101q-168 0 -253 99t-85 275zM260 324q0 -256 156 -256q94 0 170 66.5t120 166.5t66.5 203.5t22.5 193.5q0 258 -156 258q-92 0 -169 -66.5t-120 -166.5t-66.5 -204.5 t-23.5 -194.5z" />
<glyph unicode="p" horiz-adv-x="1169" d="M-80 -614l381 1497h-205v65q152 47 227.5 68.5t110.5 21.5q72 0 72 -61q0 -20 -14 -84l-19 -74q172 219 377 219q98 0 162.5 -71.5t64.5 -223.5q0 -315 -189.5 -536t-457.5 -221q-82 0 -166 18l-149 -588zM287 88q35 -12 98 -12q143 0 259 97t174.5 237.5t58.5 287.5 q0 199 -127 199q-72 0 -163 -78t-161 -184z" />
<glyph unicode="q" horiz-adv-x="1107" d="M49 281q0 315 189.5 536t457.5 221q190 0 334 -94l-399 -1546l-193 -27l217 836q-178 -221 -379 -221q-98 0 -162.5 71.5t-64.5 223.5zM250 326q0 -199 127 -199q72 0 164 79t161 187l142 541q-43 14 -103 14q-143 0 -258.5 -97t-174 -237.5t-58.5 -287.5z" />
<glyph unicode="r" horiz-adv-x="911" d="M74 -14l225 899h-205v63q274 90 338 90q72 0 72 -59q0 -33 -15 -84l-32 -125q201 268 366 268q61 0 97 -36.5t36 -92.5q0 -59 -41 -123q-139 63 -190 64q-43 0 -85 -21.5t-87 -70.5t-70.5 -82t-74.5 -103l-144 -573z" />
<glyph unicode="s" horiz-adv-x="909" d="M-23 162q0 31 11.5 54.5t39 46t46 33.5t59.5 34q43 -121 99.5 -189.5t160.5 -68.5q68 0 113 40t45 105q0 61 -39 113q-37 51 -207 174q-55 41 -94 108.5t-39 151.5q0 131 99.5 202.5t269.5 71.5q145 0 234 -43t89 -116q0 -88 -164 -140q-66 209 -211 209 q-63 0 -104 -33.5t-41 -93.5q0 -45 28.5 -88t59.5 -68.5t94 -72.5q201 -145 201 -313q0 -135 -102.5 -214t-290.5 -79q-170 0 -263.5 49t-93.5 127z" />
<glyph unicode="t" horiz-adv-x="763" d="M111 109q0 31 10 75l186 742h-170l17 61l174 14l45 179l190 30l-49 -194l268 22l-28 -112h-262l-173 -703q-4 -20 -4 -24q0 -45 47 -45q53 0 135.5 26.5t139.5 44.5l20 -65q-39 -23 -196.5 -98.5t-241.5 -75.5q-108 0 -108 123z" />
<glyph unicode="u" horiz-adv-x="1222" d="M90 883v65q154 47 231.5 68.5t106.5 21.5q72 0 72 -61q0 -16 -14.5 -70.5t-35 -129.5t-45 -161t-45 -162.5t-35 -137t-14.5 -83.5q0 -96 76 -96q39 0 89 25.5t102.5 68.5t102.5 97.5t87 111.5l147 584l189 14l-223 -897h204v-65q-154 -47 -231.5 -68.5t-105.5 -21.5 q-72 0 -72 61v6q0 27 14 78l33 127q-205 -272 -412 -272q-190 0 -190 200q0 100 51 273l123 424h-205z" />
<glyph unicode="v" horiz-adv-x="1107" d="M39 883v65q229 90 291 90q66 0 78 -61l153 -825q102 131 156.5 207.5t112 196.5t57.5 210q0 55 -34 92t-114 92q76 88 183 88q59 0 101 -34.5t42 -108.5q0 -129 -106.5 -323.5t-403.5 -571.5l-154 -14l-157 897h-205z" />
<glyph unicode="w" horiz-adv-x="1667" d="M39 883v65q242 90 299 90q68 0 78 -61l143 -827q260 330 285 581l-51 293l182 14l164 -882q282 359 282 608q0 57 -33.5 94t-113.5 92q76 88 182 88q57 0 100 -34.5t43 -108.5q0 -143 -91 -339t-378 -556l-157 -14l-90 522q-16 -25 -73.5 -127t-116 -192.5t-136.5 -188.5 l-156 -14l-157 897h-205z" />
<glyph unicode="x" horiz-adv-x="1132" d="M-61 111q0 49 26 118q106 -34 168 -34h4q68 0 113 37.5t94 107.5l115 160l-115 383h-207v65q221 90 277 90q70 0 88 -61l96 -326q166 221 250 304t164 83q57 0 92 -35.5t35 -91.5q0 -43 -29 -118q-108 34 -169 34h-3q-57 0 -101 -30.5t-108 -118.5l-96 -135l123 -402h207 v-65q-211 -90 -277 -90q-70 0 -88 61l-104 346q-170 -229 -259.5 -318t-168.5 -89q-57 0 -92 35t-35 90z" />
<glyph unicode="y" horiz-adv-x="1112" d="M0 -502q0 47 31.5 98.5t74.5 92.5l136 131q92 90 164 166l-160 897h-205v65q233 90 291 90q68 0 78 -61l149 -819l16 18q178 215 246 350.5t68 239.5q0 35 -19.5 65.5t-44 52t-84.5 66.5q76 88 183 88q57 0 100 -34.5t43 -108.5q0 -272 -424 -784l-287 -332 q-41 -43 -74.5 -85t-44 -66.5t-10.5 -51.5q0 -55 52 -111q-71 -79 -158 -79h-2q-47 0 -83 27.5t-36 84.5z" />
<glyph unicode="z" horiz-adv-x="1044" d="M12 53l760 832q-55 -33 -233 -33h-115q-104 0 -165.5 -28.5t-92.5 -112.5l-68 16q47 195 83 253t87 58q45 0 197.5 -7t220.5 -7q154 0 266 14l35 -59l-786 -866q178 30 358 30h12q356 0 357 -168q0 -122 -165 -122h-3l-37 2v12q0 74 -86 117t-231 43q-119 0 -351 -27z " />
<glyph unicode="{" horiz-adv-x="718" d="M45 606l23 86q111 6 181 52.5t99 162.5l88 357q74 293 350 292h127l-22 -88h-57q-158 0 -211 -215l-88 -350q-53 -215 -275 -252v-2q162 -31 162 -176q0 -35 -12 -78l-91 -354q-16 -59 -16 -98q0 -117 121 -117h57l-20 -88h-127q-106 0 -161.5 52t-55.5 147q0 43 12 96 l90 356q10 39 10 78q0 74 -47 103.5t-137 35.5z" />
<glyph unicode="|" horiz-adv-x="649" d="M242 -492v2048h133v-2048h-133z" />
<glyph unicode="}" horiz-adv-x="718" d="M-170 -262l20 88h58q84 0 133 53t78 162l90 354q55 217 278 254v2q-164 31 -163 176q0 31 10 76l88 350q16 61 16 103q0 113 -121 112h-57l23 88h127q217 0 217 -188q0 -49 -15 -104l-88 -357q-10 -47 -10 -73q0 -135 184 -142l-22 -86q-109 -6 -179.5 -52t-101.5 -165 l-90 -356q-35 -135 -126 -215t-222 -80h-127z" />
<glyph unicode="~" horiz-adv-x="919" d="M236 1317q20 20 55 51t119 83t143 52q57 0 103 -32.5t85 -64.5t80 -32q96 0 230 101l32 -48q-20 -20 -54 -50.5t-118 -83t-143 -52.5q-57 0 -104.5 33t-86 64.5t-79.5 31.5q-90 0 -230 -100z" />
<glyph unicode="&#xa1;" horiz-adv-x="532" d="M-68 -410l293 1008h117l-213 -1008h-197zM199 899q0 59 40 99t95 40q57 0 98 -40t41 -99q0 -55 -41 -95t-98 -40q-55 0 -95 40t-40 95z" />
<glyph unicode="&#xa2;" horiz-adv-x="995" d="M68 348q0 123 39.5 244t112.5 221t188 162q88 49 186 59l74 293h114l-73 -291q96 -8 157 -45q78 -47 78 -125q0 -55 -37 -84.5t-90 -29.5q-39 0 -74 14q8 45 9 68q0 96 -64 116l-215 -860q23 -2 89.5 0t197.5 49l20 -63q-162 -84 -331 -88l-68 -275h-115l70 279 q-111 16 -178 88q-90 94 -90 268zM279 365q0 -170 90 -236l202 813q-98 -33 -180 -156q-113 -170 -112 -421z" />
<glyph unicode="&#xa3;" horiz-adv-x="1200" d="M-25 74q410 279 410 565q0 29 -2 43h-252l21 86l215 14q-39 158 -44.5 203t-5.5 78q0 174 129 280.5t324 106.5q182 0 290.5 -68.5t108.5 -183.5q0 -72 -53 -108.5t-131 -36.5h-29q12 49 13 94q0 96 -53.5 155.5t-139.5 59.5q-123 0 -192.5 -89t-69.5 -231q2 -86 35 -245 l301 22l-53 -137h-238q0 -252 -274 -483h542l152 221h80l-146 -420h-923z" />
<glyph unicode="&#xa4;" horiz-adv-x="1187" d="M80 352l158 133q-29 66 -29 148q0 201 162 368l-92 132l94 71l90 -127q127 90 276 90q129 0 215 -77l158 129l70 -89l-158 -131q25 -68 25 -139q0 -106 -47.5 -211.5t-122.5 -177.5l92 -133l-92 -72l-93 125q-123 -86 -258 -86q-131 0 -223 86l-153 -129zM371 678 q0 -113 55 -181.5t154 -68.5q123 0 210 112.5t87 245.5q0 109 -54.5 181.5t-154.5 72.5q-123 0 -210 -112.5t-87 -249.5z" />
<glyph unicode="&#xa5;" horiz-adv-x="1435" d="M250 1350l20 84h486l-21 -84l-131 -27l191 -535l417 521l-151 41l20 84h473l-20 -84l-156 -45l-442 -547l295 18l-53 -137h-334l-29 -121l356 21l-53 -138h-332l-67 -272l180 -45l-20 -84h-551l20 84l172 45l68 272h-330l23 86l331 19l33 133h-328l23 86l270 14l-209 570 z" />
<glyph unicode="&#xa6;" horiz-adv-x="636" d="M236 328h133v-820h-133v820zM236 737v819h133v-819h-133z" />
<glyph unicode="&#xa7;" horiz-adv-x="1060" d="M0 -88l80 319h67l17 -270q63 -25 158 -24q139 0 224 55t85 162q0 35 -10.5 59.5t-24.5 40.5q-33 41 -165 119t-178 126t-67.5 94t-21.5 101q0 178 225 285q-86 86 -86 205q0 172 134 271t325 99q168 0 299 -53l-80 -321h-68l-14 260q-68 14 -129 14q-117 0 -209 -51 t-92 -158q0 -37 13.5 -66.5t44 -56t59.5 -45.5q145 -84 179 -106.5t86 -65.5t75.5 -93t23.5 -110q0 -197 -211 -313q76 -82 76 -196q0 -176 -135 -269.5t-336 -93.5q-207 0 -344 82zM330 745q0 -16 3 -29.5t10 -26.5t14.5 -23.5t21.5 -23.5t23.5 -20.5t123.5 -80.5 q98 -57 142 -90q98 74 98 188q0 121 -205 225q-61 29 -100 58q-131 -68 -131 -177z" />
<glyph unicode="&#xa8;" horiz-adv-x="811" d="M61 1419q0 55 40 94t96 39q55 0 94 -38.5t39 -94.5q0 -57 -39 -96t-94 -39t-95.5 39t-40.5 96zM471 1419q0 55 40 94t95 39t94 -38.5t39 -94.5q0 -57 -38.5 -96t-94.5 -39q-55 0 -95 39t-40 96z" />
<glyph unicode="&#xa9;" horiz-adv-x="1757" d="M160 735q0 156 59.5 293t162.5 239.5t239.5 163t289.5 60.5q154 0 291 -60.5t239.5 -163t163 -240.5t60.5 -292t-59.5 -291t-163 -238.5t-240.5 -160.5t-291 -59q-309 0 -532 219q-219 219 -219 530zM283 735q0 -131 49 -245.5t135 -200.5t200.5 -135.5t243.5 -49.5 q131 0 246 50.5t201 136.5t135 200.5t49 243.5q0 131 -49 246t-135 201t-201 136t-246 50q-129 0 -243.5 -49t-199.5 -135t-135 -202t-50 -247zM508 735q0 217 110.5 334t333.5 117q121 0 234 -47v-230h-72l-53 172q-57 10 -92 11q-293 0 -293 -357q0 -352 287 -352 q27 0 45 1t30 3l92 186h70l-31 -227q-109 -57 -237 -57q-209 0 -316.5 114.5t-107.5 331.5z" />
<glyph unicode="&#xaa;" horiz-adv-x="829" d="M199 977q0 197 122.5 335t292.5 138q131 0 217 -59l-126 -494h126v-47q-98 -31 -153 -45q-37 -12 -80 -12q-41 0 -41 36q0 14 8 54l13 47q-106 -137 -236 -137q-66 0 -104.5 49t-38.5 135zM354 1006q0 -109 70 -109q45 0 97 46t89 118l84 313q-25 8 -53 8 q-133 0 -210 -114.5t-77 -261.5z" />
<glyph unicode="&#xab;" horiz-adv-x="937" d="M82 520l16 66l385 356h97l-293 -389l98 -389h-96zM455 524l14 58l307 301h86l-213 -330l37 -350h-86z" />
<glyph unicode="&#xac;" horiz-adv-x="1214" d="M143 668v131h877v-547h-131v416h-746z" />
<glyph unicode="&#xad;" horiz-adv-x="827" d="M172 649v164h533v-164h-533z" />
<glyph unicode="&#xae;" horiz-adv-x="1757" d="M160 735q0 156 59.5 293t162.5 239.5t239.5 163t289.5 60.5q154 0 291 -60.5t239.5 -163t163 -240.5t60.5 -292t-59.5 -291t-163 -238.5t-240.5 -160.5t-291 -59q-309 0 -532 219q-219 219 -219 530zM281 735q0 -129 50 -243.5t136 -200.5t200.5 -136.5t243.5 -50.5 t244 50.5t201 136.5t136 200.5t50 243.5t-50 245t-136 202t-201 136t-244 50q-262 0 -446 -186q-184 -184 -184 -447zM526 311v58l115 26v692l-115 27v57h348q342 0 343 -235q0 -92 -52.5 -151.5t-146.5 -79.5l190 -312l109 -26v-56h-232l-215 381h-79v-297l114 -26v-58 h-379zM791 766h71q92 0 145.5 44t53.5 126q0 76 -53.5 117t-145.5 41h-71v-328z" />
<glyph unicode="&#xaf;" horiz-adv-x="0" />
<glyph unicode="&#xb0;" horiz-adv-x="528" d="M231 1245q0 129 89.5 215t207.5 86q119 0 210 -86t91 -215q0 -127 -88 -214t-213 -87q-121 0 -209 87t-88 214zM358 1245q0 -68 52.5 -119t115.5 -51q72 0 124 51.5t52 118.5q0 68 -53 119t-123 51q-63 0 -115.5 -51t-52.5 -119z" />
<glyph unicode="&#xb1;" horiz-adv-x="1286" d="M147 0v137h920v-137h-920zM147 662v137h379v399h138v-399h403v-137h-403v-402h-138v402h-379z" />
<glyph unicode="&#xb2;" horiz-adv-x="774" d="M129 584l14 73l322 347q47 55 65.5 80.5t39 62.5t26.5 66.5t6 62.5q0 53 -25.5 85t-70.5 32q-49 0 -77 -36t-28 -95q0 -25 5 -78q-59 0 -102.5 29.5t-43.5 80.5q0 72 69.5 116t188.5 44q113 0 179.5 -47t66.5 -141q0 -47 -15.5 -88t-58.5 -90.5t-84 -88.5l-284 -268h284 l82 125h57l-98 -272h-518z" />
<glyph unicode="&#xb3;" horiz-adv-x="751" d="M121 637l26 63q94 -59 195 -59q96 0 153.5 49t57.5 135q0 76 -42 120t-144 52l14 72q90 2 151.5 70.5t61.5 156.5q0 47 -24.5 73t-59.5 26q-113 0 -113 -142q0 -35 6 -65q-59 0 -99 27.5t-40 78.5q0 68 71 112t187 44q104 0 168 -45t64 -137q0 -88 -69 -152.5t-165 -81.5 v-2q92 -8 145.5 -63.5t53.5 -134.5q0 -129 -94.5 -199t-229.5 -70q-145 0 -274 72z" />
<glyph unicode="&#xb4;" horiz-adv-x="411" d="M20 1210l207 361q125 -23 193 -107l-326 -309z" />
<glyph unicode="&#xb6;" horiz-adv-x="1226" d="M207 1059q0 203 143.5 350t399.5 147h598l-19 -77l-174 -41l-416 -1667h-118l411 1656h-182l-412 -1656h-119l254 1020h-18q-348 0 -348 268z" />
<glyph unicode="&#xb7;" horiz-adv-x="536" d="M111 614q0 63 47 109.5t112 46.5q63 0 109.5 -46t46.5 -110q0 -68 -46 -113.5t-110 -45.5q-66 0 -112.5 45.5t-46.5 113.5z" />
<glyph unicode="&#xb8;" horiz-adv-x="681" d="M-2 -469l25 80q27 -8 75 -8q76 0 136.5 32.5t60.5 108.5q0 100 -121 100l90 174h90l-49 -102q152 -8 152 -141q0 -115 -96.5 -189.5t-221.5 -74.5q-73 0 -141 20z" />
<glyph unicode="&#xb9;" horiz-adv-x="487" d="M188 584l185 727l-137 -58l-17 66l275 133h61l-215 -868h-152z" />
<glyph unicode="&#xba;" horiz-adv-x="802" d="M199 1024q0 174 120.5 300t288.5 126q121 0 185.5 -63.5t64.5 -167.5q0 -172 -120 -299t-292 -127q-123 0 -185 62.5t-62 168.5zM369 995q0 -133 94 -133q90 0 157.5 128t67.5 257q0 133 -96 133q-90 0 -156.5 -127t-66.5 -258z" />
<glyph unicode="&#xbb;" horiz-adv-x="940" d="M53 223l213 330l-37 350h86l146 -321l-15 -58l-307 -301h-86zM336 164l293 389l-99 389h97l207 -356l-17 -66l-385 -356h-96z" />
<glyph unicode="&#xbc;" horiz-adv-x="1492" d="M161 0l955 1434h135l-955 -1434h-135zM231 584l185 727l-137 -58l-17 66l275 133h61l-215 -868h-152zM714 231l15 66l565 573h80l-135 -547h88l-23 -92h-90l-57 -229h-138l60 229h-365zM874 323h227l76 303z" />
<glyph unicode="&#xbd;" horiz-adv-x="1619" d="M164 0l955 1434h135l-955 -1434h-135zM233 584l185 727l-137 -58l-17 66l275 133h61l-215 -868h-152zM840 4l14 73l322 347q47 55 65.5 80.5t39 62.5t26.5 66.5t6 62.5q0 53 -25.5 85t-70.5 32q-49 0 -77 -36t-28 -95q0 -25 5 -78q-59 0 -102.5 29.5t-43.5 80.5 q0 72 69.5 116t188.5 44q113 0 179.5 -47t66.5 -141q0 -47 -15.5 -88t-58.5 -90.5t-84 -88.5l-284 -268h284l82 125h57l-98 -272h-518z" />
<glyph unicode="&#xbe;" horiz-adv-x="1599" d="M121 637l26 63q94 -59 195 -59q96 0 153.5 49t57.5 135q0 76 -42 120t-144 52l14 72q90 2 151.5 70.5t61.5 156.5q0 47 -24.5 73t-59.5 26q-113 0 -113 -142q0 -35 6 -65q-59 0 -99 27.5t-40 78.5q0 68 71 112t187 44q104 0 168 -45t64 -137q0 -88 -69 -152.5t-165 -81.5 v-2q92 -8 145.5 -63.5t53.5 -134.5q0 -129 -94.5 -199t-229.5 -70q-145 0 -274 72zM364 0l955 1434h135l-955 -1434h-135zM815 231l15 66l565 573h80l-135 -547h88l-23 -92h-90l-57 -229h-138l60 229h-365zM975 323h227l76 303z" />
<glyph unicode="&#xbf;" horiz-adv-x="931" d="M-94 -166q0 109 61.5 188.5t148.5 126t175 85t149.5 93t61.5 124.5q0 45 -26 72.5t-64 27.5q-49 0 -101 -39l-49 63q68 66 172 66q76 0 136.5 -51t60.5 -137q0 -92 -53.5 -164t-129.5 -119l-153 -92q-76 -45 -129 -109.5t-53 -148.5q0 -76 46 -118t122 -42q82 0 130 57.5 t48 149.5q0 39 -15 102q96 0 154.5 -38.5t58.5 -114.5q0 -104 -106.5 -173t-294.5 -69q-154 0 -252 69.5t-98 190.5zM393 899q0 59 40 99t95 40q57 0 98.5 -40t41.5 -99q0 -55 -41 -95t-99 -40q-55 0 -95 40t-40 95z" />
<glyph unicode="&#xc0;" d="M-160 0l21 84l188 45l778 1305h113l96 -1307l162 -43l-20 -84h-512l20 84l156 37l-25 291h-469l-174 -285l162 -43l-21 -84h-475zM418 522h389l-37 596zM551 1661q27 53 71.5 98t96.5 64l274 -244l-55 -63z" />
<glyph unicode="&#xc1;" d="M-160 0l21 84l188 45l778 1305h113l96 -1307l162 -43l-20 -84h-512l20 84l156 37l-25 291h-469l-174 -285l162 -43l-21 -84h-475zM418 522h389l-37 596zM761 1579l275 244q51 -18 96 -63.5t72 -98.5l-387 -145z" />
<glyph unicode="&#xc2;" d="M-160 0l21 84l188 45l778 1305h113l96 -1307l162 -43l-20 -84h-512l20 84l156 37l-25 291h-469l-174 -285l162 -43l-21 -84h-475zM418 522h389l-37 596zM540 1581l318 250h172l197 -250l-93 -49l-217 154l-282 -154z" />
<glyph unicode="&#xc3;" d="M-160 0l21 84l188 45l778 1305h113l96 -1307l162 -43l-20 -84h-512l20 84l156 37l-25 291h-469l-174 -285l162 -43l-21 -84h-475zM418 522h389l-37 596zM508 1667q63 74 130.5 114.5t127.5 40.5q76 0 159.5 -64.5t139.5 -64.5q80 0 170 76l41 -53q-23 -31 -106 -93.5 t-161 -62.5q-84 0 -162.5 64.5t-136.5 64.5q-39 0 -63.5 -12t-93.5 -64z" />
<glyph unicode="&#xc4;" d="M-160 0l21 84l188 45l778 1305h113l96 -1307l162 -43l-20 -84h-512l20 84l156 37l-25 291h-469l-174 -285l162 -43l-21 -84h-475zM418 522h389l-37 596zM555 1696q0 55 40 94t96 39q55 0 94 -39t39 -94q0 -57 -39 -96t-94 -39t-95.5 39t-40.5 96zM963 1696q0 55 40 94 t95 39t94 -39t39 -94q0 -57 -39 -96t-94 -39t-95 39t-40 96z" />
<glyph unicode="&#xc5;" horiz-adv-x="1318" d="M-160 0l21 84l188 45l774 1298q-37 16 -67 48q-66 66 -66 159q0 96 66.5 160t154.5 64t156 -63.5t68 -160.5q0 -94 -66 -159q-55 -53 -127 -62l94 -1286l162 -43l-20 -84h-512l20 84l156 37l-25 291h-469l-174 -285l162 -43l-21 -84h-475zM418 522h389l-37 596zM799 1634 q0 -45 33.5 -78.5t78.5 -33.5q47 0 81 33.5t34 78.5t-35 79t-80 34t-78.5 -34t-33.5 -79z" />
<glyph unicode="&#xc6;" horiz-adv-x="2115" d="M-168 0l21 84l241 57l1301 1293h774l-105 -420h-77l-13 293h-413l-134 -527l416 41l-41 -172l-397 37l-139 -559h411l224 315h77l-166 -442h-952l21 84l188 45l70 283h-607l-296 -293l133 -35l-21 -84h-516zM645 522h522l170 680z" />
<glyph unicode="&#xc7;" horiz-adv-x="1259" d="M113 489q0 238 100 457t290.5 361.5t426.5 142.5q115 0 214 -20.5t142 -40.5l41 -21l-94 -379h-80l-12 322q-86 20 -152 20q-190 0 -346 -115.5t-241 -305t-85 -408.5q0 -166 70 -277.5t236 -111.5q90 0 180 18l233 332h80l-145 -377q-172 -88 -338 -98l-33 -72 q152 -8 152 -141q0 -115 -96.5 -189.5t-221.5 -74.5q-73 0 -141 20l24 80q27 -8 76 -8q76 0 136.5 32.5t60.5 108.5q0 100 -121 100l74 144q-100 6 -178 39q-96 41 -149.5 112.5t-78 158.5t-24.5 191z" />
<glyph unicode="&#xc8;" horiz-adv-x="1214" d="M-41 0l21 84l188 45l293 1176l-166 45l20 84h953l-105 -420h-78l-12 293h-414l-133 -527l416 41l-41 -172l-397 37l-139 -559h411l223 315h78l-166 -442h-952zM535 1661q27 53 71.5 98t96.5 64l274 -244l-55 -63z" />
<glyph unicode="&#xc9;" horiz-adv-x="1214" d="M-41 0l21 84l188 45l293 1176l-166 45l20 84h953l-105 -420h-78l-12 293h-414l-133 -527l416 41l-41 -172l-397 37l-139 -559h411l223 315h78l-166 -442h-952zM737 1579l275 244q51 -18 96 -63.5t72 -98.5l-387 -145z" />
<glyph unicode="&#xca;" horiz-adv-x="1214" d="M-41 0l21 84l188 45l293 1176l-166 45l20 84h953l-105 -420h-78l-12 293h-414l-133 -527l416 41l-41 -172l-397 37l-139 -559h411l223 315h78l-166 -442h-952zM534 1599l318 250h172l197 -250l-93 -49l-217 154l-282 -154z" />
<glyph unicode="&#xcb;" horiz-adv-x="1214" d="M-41 0l21 84l188 45l293 1176l-166 45l20 84h953l-105 -420h-78l-12 293h-414l-133 -527l416 41l-41 -172l-397 37l-139 -559h411l223 315h78l-166 -442h-952zM598 1696q0 55 40 94t96 39q55 0 94 -39t39 -94q0 -57 -39 -96t-94 -39t-95.5 39t-40.5 96zM1006 1696 q0 55 40 94t95 39t94 -39t39 -94q0 -57 -39 -96t-94 -39t-95 39t-40 96z" />
<glyph unicode="&#xcc;" horiz-adv-x="768" d="M-41 0l21 84l188 45l293 1176l-166 45l20 84h553l-20 -84l-191 -45l-292 -1176l167 -45l-20 -84h-553zM342 1661q27 53 71.5 98t96.5 64l274 -244l-55 -63z" />
<glyph unicode="&#xcd;" horiz-adv-x="768" d="M-41 0l21 84l188 45l293 1176l-166 45l20 84h553l-20 -84l-191 -45l-292 -1176l167 -45l-20 -84h-553zM462 1579l275 244q51 -18 96 -63.5t72 -98.5l-387 -145z" />
<glyph unicode="&#xce;" horiz-adv-x="768" d="M-41 0l21 84l188 45l293 1176l-166 45l20 84h553l-20 -84l-191 -45l-292 -1176l167 -45l-20 -84h-553zM270 1599l318 250h172l197 -250l-93 -49l-217 154l-282 -154z" />
<glyph unicode="&#xcf;" horiz-adv-x="768" d="M-41 0l21 84l188 45l293 1176l-166 45l20 84h553l-20 -84l-191 -45l-292 -1176l167 -45l-20 -84h-553zM325 1696q0 55 40 94t96 39q55 0 94 -39t39 -94q0 -57 -39 -96t-94 -39t-95.5 39t-40.5 96zM733 1696q0 55 40 94t95 39t94 -39t39 -94q0 -57 -39 -96t-94 -39t-95 39 t-40 96z" />
<glyph unicode="&#xd0;" horiz-adv-x="1429" d="M-39 0l21 84l188 45l135 543h-201v96h224l135 537l-166 45l20 84h443q301 0 455.5 -128t154.5 -378q0 -225 -78 -405.5t-213 -293t-307 -171t-369 -58.5h-442zM367 127h67q322 0 527.5 235.5t205.5 573.5q0 371 -438 371h-67l-136 -539h332v-96h-356z" />
<glyph unicode="&#xd1;" horiz-adv-x="1517" d="M-41 0l21 84l188 45l293 1176l-166 45l20 84h279l481 -1024l223 895l-163 45l20 84h485l-20 -84l-190 -45l-324 -1305h-53l-514 1090l-240 -961l166 -45l-21 -84h-485zM635 1657q63 74 130.5 114.5t127.5 40.5q76 0 159.5 -64.5t139.5 -64.5q80 0 170 76l41 -53 q-23 -31 -106 -93.5t-161 -62.5q-84 0 -162.5 64.5t-136.5 64.5q-39 0 -63.5 -12t-93.5 -64z" />
<glyph unicode="&#xd2;" horiz-adv-x="1472" d="M111 477q0 248 100 469t291.5 362.5t429.5 141.5q240 0 363.5 -138t123.5 -356q0 -182 -59.5 -356t-162.5 -311t-260 -220t-337 -83q-240 0 -364.5 138t-124.5 353zM319 459q0 -168 75 -266.5t222 -98.5q139 0 255 86t187.5 220.5t111.5 286t40 292.5q0 166 -75.5 262 t-223.5 96q-135 0 -251.5 -86t-188.5 -219t-112 -283.5t-40 -289.5zM664 1661q27 53 71.5 98t96.5 64l274 -244l-55 -63z" />
<glyph unicode="&#xd3;" horiz-adv-x="1472" d="M111 477q0 248 100 469t291.5 362.5t429.5 141.5q240 0 363.5 -138t123.5 -356q0 -182 -59.5 -356t-162.5 -311t-260 -220t-337 -83q-240 0 -364.5 138t-124.5 353zM319 459q0 -168 75 -266.5t222 -98.5q139 0 255 86t187.5 220.5t111.5 286t40 292.5q0 166 -75.5 262 t-223.5 96q-135 0 -251.5 -86t-188.5 -219t-112 -283.5t-40 -289.5zM792 1579l275 244q51 -18 96 -63.5t72 -98.5l-387 -145z" />
<glyph unicode="&#xd4;" horiz-adv-x="1472" d="M111 477q0 248 100 469t291.5 362.5t429.5 141.5q240 0 363.5 -138t123.5 -356q0 -182 -59.5 -356t-162.5 -311t-260 -220t-337 -83q-240 0 -364.5 138t-124.5 353zM319 459q0 -168 75 -266.5t222 -98.5q139 0 255 86t187.5 220.5t111.5 286t40 292.5q0 166 -75.5 262 t-223.5 96q-135 0 -251.5 -86t-188.5 -219t-112 -283.5t-40 -289.5zM641 1591l318 250h172l197 -250l-93 -49l-217 154l-282 -154z" />
<glyph unicode="&#xd5;" horiz-adv-x="1472" d="M111 477q0 248 100 469t291.5 362.5t429.5 141.5q240 0 363.5 -138t123.5 -356q0 -182 -59.5 -356t-162.5 -311t-260 -220t-337 -83q-240 0 -364.5 138t-124.5 353zM319 459q0 -168 75 -266.5t222 -98.5q139 0 255 86t187.5 220.5t111.5 286t40 292.5q0 166 -75.5 262 t-223.5 96q-135 0 -251.5 -86t-188.5 -219t-112 -283.5t-40 -289.5zM611 1678q63 74 130.5 114.5t127.5 40.5q76 0 159.5 -64.5t139.5 -64.5q80 0 170 76l41 -53q-23 -31 -106 -93.5t-161 -62.5q-84 0 -162.5 64.5t-136.5 64.5q-39 0 -63.5 -12t-93.5 -64z" />
<glyph unicode="&#xd6;" horiz-adv-x="1472" d="M111 477q0 248 100 469t291.5 362.5t429.5 141.5q240 0 363.5 -138t123.5 -356q0 -182 -59.5 -356t-162.5 -311t-260 -220t-337 -83q-240 0 -364.5 138t-124.5 353zM319 459q0 -168 75 -266.5t222 -98.5q139 0 255 86t187.5 220.5t111.5 286t40 292.5q0 166 -75.5 262 t-223.5 96q-135 0 -251.5 -86t-188.5 -219t-112 -283.5t-40 -289.5zM636 1696q0 55 40 94t96 39q55 0 94 -39t39 -94q0 -57 -39 -96t-94 -39t-95.5 39t-40.5 96zM1044 1696q0 55 40 94t95 39t94 -39t39 -94q0 -57 -39 -96t-94 -39t-95 39t-40 96z" />
<glyph unicode="&#xd7;" horiz-adv-x="1224" d="M203 389l344 342l-344 344l98 96l342 -342l346 345l96 -99l-344 -344l344 -344l-96 -96l-344 344l-344 -342z" />
<glyph unicode="&#xd8;" horiz-adv-x="1472" d="M111 477q0 246 100 467t291.5 363.5t429.5 142.5q92 0 168 -20l45 83h131l-68 -131q49 -29 86 -71q125 -137 125 -355q0 -182 -59.5 -356t-162.5 -311t-260 -220t-337 -83q-63 0 -121 10l-39 -78h-133l58 111q-76 33 -132 94q-123 137 -122 354zM319 457q0 -168 74 -264 q16 -23 37 -39l610 1159q-55 25 -129 24q-135 0 -251.5 -86t-188.5 -219t-112 -284.5t-40 -290.5zM537 104q36 -8 79 -8q137 0 254 86t188.5 219.5t111.5 284t40 291.5q0 168 -75 264h-2z" />
<glyph unicode="&#xd9;" horiz-adv-x="1509" d="M199 346q0 92 28 205l189 754l-166 45l20 84h553l-20 -84l-191 -45l-188 -754q-29 -119 -29 -174q0 -125 80 -185.5t217 -60.5q156 0 268.5 110.5t161.5 309.5l189 754l-164 45l20 84h486l-21 -84l-190 -45l-189 -754q-70 -283 -232.5 -424t-404.5 -141q-186 0 -301.5 90 t-115.5 270zM693 1661q27 53 71.5 98t96.5 64l274 -244l-55 -63z" />
<glyph unicode="&#xda;" horiz-adv-x="1509" d="M199 346q0 92 28 205l189 754l-166 45l20 84h553l-20 -84l-191 -45l-188 -754q-29 -119 -29 -174q0 -125 80 -185.5t217 -60.5q156 0 268.5 110.5t161.5 309.5l189 754l-164 45l20 84h486l-21 -84l-190 -45l-189 -754q-70 -283 -232.5 -424t-404.5 -141q-186 0 -301.5 90 t-115.5 270zM852 1579l275 244q51 -18 96 -63.5t72 -98.5l-387 -145z" />
<glyph unicode="&#xdb;" horiz-adv-x="1509" d="M199 346q0 92 28 205l189 754l-166 45l20 84h553l-20 -84l-191 -45l-188 -754q-29 -119 -29 -174q0 -125 80 -185.5t217 -60.5q156 0 268.5 110.5t161.5 309.5l189 754l-164 45l20 84h486l-21 -84l-190 -45l-189 -754q-70 -283 -232.5 -424t-404.5 -141q-186 0 -301.5 90 t-115.5 270zM698 1599l318 250h172l197 -250l-93 -49l-217 154l-282 -154z" />
<glyph unicode="&#xdc;" horiz-adv-x="1509" d="M199 346q0 92 28 205l189 754l-166 45l20 84h553l-20 -84l-191 -45l-188 -754q-29 -119 -29 -174q0 -125 80 -185.5t217 -60.5q156 0 268.5 110.5t161.5 309.5l189 754l-164 45l20 84h486l-21 -84l-190 -45l-189 -754q-70 -283 -232.5 -424t-404.5 -141q-186 0 -301.5 90 t-115.5 270zM704 1696q0 55 40 94t96 39q55 0 94 -39t39 -94q0 -57 -39 -96t-94 -39t-95.5 39t-40.5 96zM1112 1696q0 55 40 94t95 39t94 -39t39 -94q0 -57 -39 -96t-94 -39t-95 39t-40 96z" />
<glyph unicode="&#xdd;" horiz-adv-x="1259" d="M158 1350l20 84h486l-21 -84l-131 -27l190 -535l418 521l-151 41l20 84h473l-20 -84l-156 -45l-530 -654l-129 -522l180 -45l-21 -84h-550l20 84l172 45l127 512l-246 668zM727 1579l275 244q51 -18 96 -63.5t72 -98.5l-387 -145z" />
<glyph unicode="&#xde;" horiz-adv-x="1183" d="M-41 0l21 84l188 45l293 1176l-166 45l20 84h553l-20 -84l-191 -45l-45 -183h107q195 0 316.5 -78.5t121.5 -244.5q0 -233 -165 -360.5t-449 -127.5h-133l-45 -182l167 -45l-20 -84h-553zM440 434h115q190 0 292.5 92t102.5 258q0 106 -67.5 163t-192.5 57h-108z" />
<glyph unicode="&#xdf;" horiz-adv-x="1263" d="M18 -14l310 1188q125 479 569 479q166 0 254 -77t88 -192q0 -119 -50 -191.5t-121 -103t-141.5 -54t-120.5 -70.5t-50 -127q0 -47 28.5 -91.5t58 -71t95.5 -75.5q109 -82 155 -148.5t46 -162.5q0 -139 -105.5 -221t-288.5 -82q-170 0 -268 51t-98 127q0 57 33.5 94 t103.5 78l68 -119q10 -16 29.5 -46t34 -43t34.5 -28.5t41.5 -21.5t48.5 -6q74 0 132.5 40t58.5 115q0 66 -39 119t-95 92l-112 82q-55 41 -94 107.5t-39 150.5q0 86 34.5 145.5t86.5 88.5l225 118q53 29 88 86.5t35 141.5q0 90 -48.5 147.5t-140.5 57.5q-41 0 -85 -17.5 t-95 -61.5t-99 -137.5t-83 -224.5l-291 -1122z" />
<glyph unicode="&#xe0;" horiz-adv-x="1161" d="M49 281q0 315 189.5 536t457.5 221q190 0 334 -94l-207 -803h205v-65q-152 -47 -230.5 -68.5t-105.5 -21.5q-72 0 -71 61q0 31 14 84l18 74q-172 -219 -377 -219q-98 0 -162.5 71.5t-64.5 223.5zM250 326q0 -199 127 -199q70 0 163 78t162 186l142 543q-43 14 -103 14 q-143 0 -258.5 -97t-174 -237.5t-58.5 -287.5zM379 1464q72 86 193 107l206 -361l-71 -55z" />
<glyph unicode="&#xe1;" horiz-adv-x="1161" d="M49 281q0 315 189.5 536t457.5 221q190 0 334 -94l-207 -803h205v-65q-152 -47 -230.5 -68.5t-105.5 -21.5q-72 0 -71 61q0 31 14 84l18 74q-172 -219 -377 -219q-98 0 -162.5 71.5t-64.5 223.5zM250 326q0 -199 127 -199q70 0 163 78t162 186l142 543q-43 14 -103 14 q-143 0 -258.5 -97t-174 -237.5t-58.5 -287.5zM677 1210l207 361q125 -23 193 -107l-326 -309z" />
<glyph unicode="&#xe2;" horiz-adv-x="1161" d="M49 281q0 315 189.5 536t457.5 221q190 0 334 -94l-207 -803h205v-65q-152 -47 -230.5 -68.5t-105.5 -21.5q-72 0 -71 61q0 31 14 84l18 74q-172 -219 -377 -219q-98 0 -162.5 71.5t-64.5 223.5zM250 326q0 -199 127 -199q70 0 163 78t162 186l142 543q-43 14 -103 14 q-143 0 -258.5 -97t-174 -237.5t-58.5 -287.5zM461 1249l317 330h154l145 -340l-80 -49l-168 252l-276 -242z" />
<glyph unicode="&#xe3;" horiz-adv-x="1161" d="M49 281q0 315 189.5 536t457.5 221q190 0 334 -94l-207 -803h205v-65q-152 -47 -230.5 -68.5t-105.5 -21.5q-72 0 -71 61q0 31 14 84l18 74q-172 -219 -377 -219q-98 0 -162.5 71.5t-64.5 223.5zM250 326q0 -199 127 -199q70 0 163 78t162 186l142 543q-43 14 -103 14 q-143 0 -258.5 -97t-174 -237.5t-58.5 -287.5zM410 1386q41 51 113.5 103.5t142.5 52.5q76 0 145.5 -64.5t124.5 -64.5q78 0 178 82l33 -59q-27 -35 -109 -95.5t-157 -60.5q-80 0 -149.5 64.5t-121.5 64.5q-41 0 -70.5 -15.5t-97.5 -64.5z" />
<glyph unicode="&#xe4;" horiz-adv-x="1161" d="M49 281q0 315 189.5 536t457.5 221q190 0 334 -94l-207 -803h205v-65q-152 -47 -230.5 -68.5t-105.5 -21.5q-72 0 -71 61q0 31 14 84l18 74q-172 -219 -377 -219q-98 0 -162.5 71.5t-64.5 223.5zM250 326q0 -199 127 -199q70 0 163 78t162 186l142 543q-43 14 -103 14 q-143 0 -258.5 -97t-174 -237.5t-58.5 -287.5zM448 1419q0 55 40 94t96 39q55 0 94 -38.5t39 -94.5q0 -57 -39 -96t-94 -39t-95.5 39t-40.5 96zM858 1419q0 55 40 94t95 39t94 -38.5t39 -94.5q0 -57 -38.5 -96t-94.5 -39q-55 0 -95 39t-40 96z" />
<glyph unicode="&#xe5;" horiz-adv-x="1161" d="M49 281q0 315 189.5 536t457.5 221q190 0 334 -94l-207 -803h205v-65q-152 -47 -230.5 -68.5t-105.5 -21.5q-72 0 -71 61q0 31 14 84l18 74q-172 -219 -377 -219q-98 0 -162.5 71.5t-64.5 223.5zM250 326q0 -199 127 -199q70 0 163 78t162 186l142 543q-43 14 -103 14 q-143 0 -258.5 -97t-174 -237.5t-58.5 -287.5zM504 1434q0 96 66.5 159.5t154.5 63.5t155.5 -63.5t67.5 -159.5q0 -94 -65.5 -159t-157.5 -65q-90 0 -155.5 64.5t-65.5 159.5zM612 1434q0 -45 34 -79t79 -34q47 0 81 34t34 79t-35 78.5t-80 33.5t-79 -33.5t-34 -78.5z" />
<glyph unicode="&#xe6;" horiz-adv-x="1533" d="M16 203q0 178 174 268q172 88 459 90q12 39 29 78q25 86 24 152q0 80 -45 126t-129 46q-102 0 -145 -67t-45 -210q-76 0 -131 35t-55 108q2 96 103 152.5t239 56.5q260 0 356 -157q41 49 149.5 103t243.5 54q115 0 185.5 -52t70.5 -152q0 -119 -97 -205t-244.5 -126 t-330.5 -46q-6 -37 -6 -74q0 -125 57.5 -211t172.5 -86q106 0 252 55l18 -63q-184 -92 -377 -92q-213 0 -289 145q-76 -59 -170 -102t-219 -43q-117 0 -183.5 62.5t-66.5 154.5zM227 236q0 -53 34 -90t106 -37q137 0 260 102q-13 53 -13 121q0 70 13 137q-170 -2 -285 -63 t-115 -170zM844 551q229 29 347 108.5t118 186.5q0 53 -29 85t-76 32q-127 0 -227 -114t-133 -298z" />
<glyph unicode="&#xe7;" horiz-adv-x="946" d="M55 348q0 123 40 244t113 221t187.5 162.5t251.5 62.5q127 0 206 -48t79 -118q0 -61 -50.5 -103t-131.5 -44q-8 31 -19.5 80t-16.5 67.5t-16.5 43t-25 32.5t-35.5 8q-143 0 -257 -170t-114 -421q0 -127 57.5 -203t184.5 -76q100 0 240 53l20 -63q-123 -61 -250 -80 l-37 -80q152 -8 152 -141q0 -115 -96.5 -189.5t-221.5 -74.5q-73 0 -141 20l25 80q27 -8 75 -8q76 0 136.5 32.5t60.5 108.5q0 100 -121 100l72 142h-27q-160 0 -250 94t-90 268z" />
<glyph unicode="&#xe8;" horiz-adv-x="968" d="M49 332q0 98 26.5 197.5t81 190.5t128 161.5t176 113.5t219.5 43q115 0 185.5 -52t70.5 -152q0 -76 -44 -138.5t-107.5 -105.5t-162 -80t-179.5 -58.5t-187 -43.5q-2 -18 -2 -56q0 -266 231 -266q106 0 252 55l21 -63q-184 -92 -377 -92q-332 0 -332 346zM266 487 q469 170 469 367q0 109 -96 109q-123 0 -230.5 -143t-142.5 -333zM330 1464q72 86 193 107l206 -361l-71 -55z" />
<glyph unicode="&#xe9;" horiz-adv-x="968" d="M49 332q0 98 26.5 197.5t81 190.5t128 161.5t176 113.5t219.5 43q115 0 185.5 -52t70.5 -152q0 -76 -44 -138.5t-107.5 -105.5t-162 -80t-179.5 -58.5t-187 -43.5q-2 -18 -2 -56q0 -266 231 -266q106 0 252 55l21 -63q-184 -92 -377 -92q-332 0 -332 346zM266 487 q469 170 469 367q0 109 -96 109q-123 0 -230.5 -143t-142.5 -333zM589 1210l207 361q125 -23 193 -107l-326 -309z" />
<glyph unicode="&#xea;" horiz-adv-x="968" d="M49 332q0 98 26.5 197.5t81 190.5t128 161.5t176 113.5t219.5 43q115 0 185.5 -52t70.5 -152q0 -76 -44 -138.5t-107.5 -105.5t-162 -80t-179.5 -58.5t-187 -43.5q-2 -18 -2 -56q0 -266 231 -266q106 0 252 55l21 -63q-184 -92 -377 -92q-332 0 -332 346zM266 487 q469 170 469 367q0 109 -96 109q-123 0 -230.5 -143t-142.5 -333zM353 1231l317 330h154l145 -340l-80 -49l-168 252l-276 -242z" />
<glyph unicode="&#xeb;" horiz-adv-x="968" d="M49 332q0 98 26.5 197.5t81 190.5t128 161.5t176 113.5t219.5 43q115 0 185.5 -52t70.5 -152q0 -76 -44 -138.5t-107.5 -105.5t-162 -80t-179.5 -58.5t-187 -43.5q-2 -18 -2 -56q0 -266 231 -266q106 0 252 55l21 -63q-184 -92 -377 -92q-332 0 -332 346zM266 487 q469 170 469 367q0 109 -96 109q-123 0 -230.5 -143t-142.5 -333zM331 1419q0 55 40 94t96 39q55 0 94 -38.5t39 -94.5q0 -57 -39 -96t-94 -39t-95.5 39t-40.5 96zM741 1419q0 55 40 94t95 39t94 -38.5t39 -94.5q0 -57 -38.5 -96t-94.5 -39q-55 0 -95 39t-40 96z" />
<glyph unicode="&#xec;" horiz-adv-x="641" d="M84 1464q72 86 193 107l206 -361l-71 -55zM92 45q0 23 14 84l193 756h-207v63q279 90 338 90q74 0 74 -59q0 -27 -17 -84l-188 -756h205v-63q-276 -90 -338 -90q-74 0 -74 59z" />
<glyph unicode="&#xed;" horiz-adv-x="641" d="M92 45q0 23 14 84l193 756h-207v63q279 90 338 90q74 0 74 -59q0 -27 -17 -84l-188 -756h205v-63q-276 -90 -338 -90q-74 0 -74 59zM292 1210l207 361q125 -23 193 -107l-326 -309z" />
<glyph unicode="&#xee;" horiz-adv-x="641" d="M47 1249l317 330h154l145 -340l-80 -49l-168 252l-276 -242zM92 45q0 23 14 84l193 756h-207v63q279 90 338 90q74 0 74 -59q0 -27 -17 -84l-188 -756h205v-63q-276 -90 -338 -90q-74 0 -74 59z" />
<glyph unicode="&#xef;" horiz-adv-x="641" d="M92 45q0 23 14 84l193 756h-207v63q279 90 338 90q74 0 74 -59q0 -27 -17 -84l-188 -756h205v-63q-276 -90 -338 -90q-74 0 -74 59zM104 1419q0 55 40 94t96 39q55 0 94 -38.5t39 -94.5q0 -57 -39 -96t-94 -39t-95.5 39t-40.5 96zM514 1419q0 55 40 94t95 39t94 -38.5 t39 -94.5q0 -57 -38.5 -96t-94.5 -39q-55 0 -95 39t-40 96z" />
<glyph unicode="&#xf0;" horiz-adv-x="1167" d="M53 381q0 254 198 425t482 171q53 0 109 -6q-8 166 -70 276l-285 -174v139l213 129q-117 111 -321 111l27 100q270 0 430 -127l235 144v-139l-149 -93q127 -166 127 -442q0 -150 -30 -296t-95.5 -290.5t-194.5 -233.5t-303 -89q-172 0 -272.5 107.5t-100.5 287.5z M260 334q0 -131 50 -198.5t136 -67.5q174 0 278.5 238.5t115.5 570.5q-49 4 -68 4q-129 0 -232.5 -53.5t-162 -136.5t-88 -175t-29.5 -182z" />
<glyph unicode="&#xf1;" horiz-adv-x="1224" d="M76 -14l223 897h-205v65q154 47 231.5 68.5t106.5 21.5q72 0 72 -61q0 -16 -4 -36.5t-11 -47.5l-32 -127q205 272 411 272q190 0 191 -200q0 -102 -51 -273l-123 -424h205v-65q-154 -47 -232 -68.5t-106 -21.5q-72 0 -72 61q0 35 14 84q156 539 165 583t9 77q0 96 -75 96 q-37 0 -87.5 -25.5t-103.5 -67.5t-103 -97.5t-87 -112.5l-148 -584zM377 1386q41 51 113.5 103.5t142.5 52.5q76 0 145.5 -64.5t124.5 -64.5q78 0 178 82l33 -59q-27 -35 -109 -95.5t-157 -60.5q-80 0 -149.5 64.5t-121.5 64.5q-41 0 -70.5 -15.5t-97.5 -64.5z" />
<glyph unicode="&#xf2;" horiz-adv-x="1101" d="M53 360q0 168 73 321t215 255t323 102q168 0 254 -100t86 -276q0 -166 -73 -320t-216.5 -255t-323.5 -101q-168 0 -253 99t-85 275zM260 324q0 -256 156 -256q94 0 170 66.5t120 166.5t66.5 203.5t22.5 193.5q0 258 -156 258q-92 0 -169 -66.5t-120 -166.5t-66.5 -204.5 t-23.5 -194.5zM348 1464q72 86 193 107l206 -361l-71 -55z" />
<glyph unicode="&#xf3;" horiz-adv-x="1101" d="M53 360q0 168 73 321t215 255t323 102q168 0 254 -100t86 -276q0 -166 -73 -320t-216.5 -255t-323.5 -101q-168 0 -253 99t-85 275zM260 324q0 -256 156 -256q94 0 170 66.5t120 166.5t66.5 203.5t22.5 193.5q0 258 -156 258q-92 0 -169 -66.5t-120 -166.5t-66.5 -204.5 t-23.5 -194.5zM647 1210l207 361q125 -23 193 -107l-326 -309z" />
<glyph unicode="&#xf4;" horiz-adv-x="1101" d="M53 360q0 168 73 321t215 255t323 102q168 0 254 -100t86 -276q0 -166 -73 -320t-216.5 -255t-323.5 -101q-168 0 -253 99t-85 275zM260 324q0 -256 156 -256q94 0 170 66.5t120 166.5t66.5 203.5t22.5 193.5q0 258 -156 258q-92 0 -169 -66.5t-120 -166.5t-66.5 -204.5 t-23.5 -194.5zM410 1231l317 330h154l145 -340l-80 -49l-168 252l-276 -242z" />
<glyph unicode="&#xf5;" horiz-adv-x="1101" d="M53 360q0 168 73 321t215 255t323 102q168 0 254 -100t86 -276q0 -166 -73 -320t-216.5 -255t-323.5 -101q-168 0 -253 99t-85 275zM260 324q0 -256 156 -256q94 0 170 66.5t120 166.5t66.5 203.5t22.5 193.5q0 258 -156 258q-92 0 -169 -66.5t-120 -166.5t-66.5 -204.5 t-23.5 -194.5zM310 1347q41 51 113.5 103.5t142.5 52.5q76 0 145.5 -64.5t124.5 -64.5q78 0 178 82l33 -59q-27 -35 -109 -95.5t-157 -60.5q-80 0 -149.5 64.5t-121.5 64.5q-41 0 -70.5 -15.5t-97.5 -64.5z" />
<glyph unicode="&#xf6;" horiz-adv-x="1101" d="M53 360q0 168 73 321t215 255t323 102q168 0 254 -100t86 -276q0 -166 -73 -320t-216.5 -255t-323.5 -101q-168 0 -253 99t-85 275zM260 324q0 -256 156 -256q94 0 170 66.5t120 166.5t66.5 203.5t22.5 193.5q0 258 -156 258q-92 0 -169 -66.5t-120 -166.5t-66.5 -204.5 t-23.5 -194.5zM348 1419q0 55 40 94t96 39q55 0 94 -38.5t39 -94.5q0 -57 -39 -96t-94 -39t-95.5 39t-40.5 96zM758 1419q0 55 40 94t95 39t94 -38.5t39 -94.5q0 -57 -38.5 -96t-94.5 -39q-55 0 -95 39t-40 96z" />
<glyph unicode="&#xf7;" horiz-adv-x="1142" d="M143 662v139h920v-139h-920zM467 383q0 57 41 97t96 40q57 0 97 -40t40 -97q0 -55 -39.5 -97t-97.5 -42q-55 0 -96 42t-41 97zM467 1079q0 57 41 98.5t96 41.5q57 0 97 -41t40 -99q0 -55 -39.5 -97t-97.5 -42q-55 0 -96 42t-41 97z" />
<glyph unicode="&#xf8;" horiz-adv-x="1101" d="M53 360q0 168 73 321t215 255t323 102q43 0 81 -6l74 133h115l-92 -168q43 -23 76 -59q86 -100 86 -276q0 -166 -73 -320t-216.5 -255t-323.5 -101q-53 0 -98 10l-76 -141h-117l97 178q-33 20 -60 51q-84 100 -84 276zM260 324q0 -88 16 -146l422 766q-27 12 -59 12 q-92 0 -169 -66.5t-120 -166.5t-66.5 -204.5t-23.5 -194.5zM344 86q31 -18 72 -18q94 0 170 66.5t120 166.5t66.5 203.5t22.5 193.5q0 104 -27 166z" />
<glyph unicode="&#xf9;" horiz-adv-x="1222" d="M90 883v65q154 47 231.5 68.5t106.5 21.5q72 0 72 -61q0 -16 -14.5 -70.5t-35 -129.5t-45 -161t-45 -162.5t-35 -137t-14.5 -83.5q0 -96 76 -96q39 0 89 25.5t102.5 68.5t102.5 97.5t87 111.5l147 584l189 14l-223 -897h204v-65q-154 -47 -231.5 -68.5t-105.5 -21.5 q-72 0 -72 61q-2 27 14 84l33 127q-205 -272 -412 -272q-190 0 -190 200q0 100 51 273l123 424h-205zM418 1464q72 86 193 107l206 -361l-71 -55z" />
<glyph unicode="&#xfa;" horiz-adv-x="1222" d="M90 883v65q154 47 231.5 68.5t106.5 21.5q72 0 72 -61q0 -16 -14.5 -70.5t-35 -129.5t-45 -161t-45 -162.5t-35 -137t-14.5 -83.5q0 -96 76 -96q39 0 89 25.5t102.5 68.5t102.5 97.5t87 111.5l147 584l189 14l-223 -897h204v-65q-154 -47 -231.5 -68.5t-105.5 -21.5 q-72 0 -72 61q-2 27 14 84l33 127q-205 -272 -412 -272q-190 0 -190 200q0 100 51 273l123 424h-205zM628 1210l207 361q125 -23 193 -107l-326 -309z" />
<glyph unicode="&#xfb;" horiz-adv-x="1222" d="M90 883v65q154 47 231.5 68.5t106.5 21.5q72 0 72 -61q0 -16 -14.5 -70.5t-35 -129.5t-45 -161t-45 -162.5t-35 -137t-14.5 -83.5q0 -96 76 -96q39 0 89 25.5t102.5 68.5t102.5 97.5t87 111.5l147 584l189 14l-223 -897h204v-65q-154 -47 -231.5 -68.5t-105.5 -21.5 q-72 0 -72 61q-2 27 14 84l33 127q-205 -272 -412 -272q-190 0 -190 200q0 100 51 273l123 424h-205zM420 1249l317 330h154l145 -340l-80 -49l-168 252l-276 -242z" />
<glyph unicode="&#xfc;" horiz-adv-x="1222" d="M90 883v65q154 47 231.5 68.5t106.5 21.5q72 0 72 -61q0 -16 -14.5 -70.5t-35 -129.5t-45 -161t-45 -162.5t-35 -137t-14.5 -83.5q0 -96 76 -96q39 0 89 25.5t102.5 68.5t102.5 97.5t87 111.5l147 584l189 14l-223 -897h204v-65q-154 -47 -231.5 -68.5t-105.5 -21.5 q-72 0 -72 61q-2 27 14 84l33 127q-205 -272 -412 -272q-190 0 -190 200q0 100 51 273l123 424h-205zM389 1419q0 55 40 94t96 39q55 0 94 -38.5t39 -94.5q0 -57 -39 -96t-94 -39t-95.5 39t-40.5 96zM799 1419q0 55 40 94t95 39t94 -38.5t39 -94.5q0 -57 -38.5 -96 t-94.5 -39q-55 0 -95 39t-40 96z" />
<glyph unicode="&#xfd;" horiz-adv-x="1112" d="M0 -502q0 47 31.5 98.5t74.5 92.5l136 131q92 90 164 166l-160 897h-205v65q233 90 291 90q68 0 78 -61l149 -819l16 18q178 215 246 350.5t68 239.5q0 35 -19.5 65.5t-44 52t-84.5 66.5q76 88 183 88q57 0 100 -34.5t43 -108.5q0 -272 -424 -784l-287 -332 q-41 -43 -74.5 -85t-44 -66.5t-10.5 -51.5q0 -55 52 -111q-72 -80 -160 -79q-47 0 -83 27.5t-36 84.5zM550 1210l207 361q125 -23 193 -107l-326 -309z" />
<glyph unicode="&#xfe;" horiz-adv-x="1118" d="M-131 -571l174 645l367 1423h-205v66q152 47 230.5 68.5t105.5 21.5q72 0 71 -62q0 -31 -14 -84l-180 -692q180 223 381 223q98 0 162.5 -71.5t64.5 -223.5q0 -315 -189.5 -536t-457.5 -221q-90 0 -170 20l-143 -547zM231 90q43 -14 103 -14q143 0 259 97t174 237.5 t58 287.5q0 199 -127 199q-72 0 -165 -80t-162 -188z" />
<glyph unicode="&#xff;" horiz-adv-x="1112" d="M0 -502q0 47 31.5 98.5t74.5 92.5l136 131q92 90 164 166l-160 897h-205v65q233 90 291 90q68 0 78 -61l149 -819l16 18q178 215 246 350.5t68 239.5q0 35 -19.5 65.5t-44 52t-84.5 66.5q76 88 183 88q57 0 100 -34.5t43 -108.5q0 -272 -424 -784l-287 -332 q-41 -43 -74.5 -85t-44 -66.5t-10.5 -51.5q0 -55 52 -111q-72 -80 -160 -79q-47 0 -83 27.5t-36 84.5zM380 1419q0 55 40 94t96 39q55 0 94 -38.5t39 -94.5q0 -57 -39 -96t-94 -39t-95.5 39t-40.5 96zM790 1419q0 55 40 94t95 39t94 -38.5t39 -94.5q0 -57 -38.5 -96 t-94.5 -39q-55 0 -95 39t-40 96z" />
<glyph unicode="&#x152;" horiz-adv-x="2076" d="M111 477q0 248 96 466t290.5 360.5t446.5 142.5q262 0 354 -232l56 220h776l-105 -420h-77l-13 293h-413l-133 -527l415 41l-41 -172l-397 37l-139 -559h411l224 315h77l-165 -442h-777l56 223q-182 -238 -473 -237q-240 0 -354.5 136t-114.5 355zM319 436 q0 -340 287 -340q143 0 263 95.5t192 238.5t110.5 292.5t38.5 274.5q0 338 -286 338q-143 0 -263 -95t-192 -237.5t-111 -292t-39 -274.5z" />
<glyph unicode="&#x153;" horiz-adv-x="1683" d="M53 360q0 168 73 321t215 255t323 102q168 0 254 -100q31 -39 51 -86q104 100 206.5 143t219.5 43q115 0 185.5 -52t70.5 -152q0 -76 -44 -138.5t-107.5 -105.5t-162 -80t-179.5 -58.5t-187 -43.5q-2 -18 -2 -56q0 -266 231 -266q106 0 252 55l21 -63q-184 -92 -377 -92 q-231 0 -301 166q-37 -35 -80 -66q-143 -100 -324 -100q-168 0 -253 99t-85 275zM260 324q0 -256 156 -256q94 0 170 66.5t120 166.5t66.5 203.5t22.5 193.5q0 258 -156 258q-92 0 -169 -66.5t-120 -166.5t-66.5 -204.5t-23.5 -194.5zM981 487q469 170 469 367 q0 106 -96 107q-123 0 -232 -142q-86 -115 -127 -262q-4 -35 -14 -70z" />
<glyph unicode="&#x2c6;" horiz-adv-x="634" d="M-14 1249l317 330h154l145 -340l-80 -49l-168 252l-276 -242z" />
<glyph unicode="&#x2dc;" horiz-adv-x="727" d="M29 1386q41 51 113.5 103.5t142.5 52.5q76 0 145.5 -64.5t124.5 -64.5q78 0 178 82l33 -59q-27 -35 -109 -95.5t-157 -60.5q-80 0 -149.5 64.5t-121.5 64.5q-41 0 -70.5 -15.5t-97.5 -64.5z" />
<glyph unicode="&#x2000;" horiz-adv-x="929" />
<glyph unicode="&#x2001;" horiz-adv-x="1858" />
<glyph unicode="&#x2002;" horiz-adv-x="929" />
<glyph unicode="&#x2003;" horiz-adv-x="1858" />
<glyph unicode="&#x2004;" horiz-adv-x="619" />
<glyph unicode="&#x2005;" horiz-adv-x="464" />
<glyph unicode="&#x2006;" horiz-adv-x="309" />
<glyph unicode="&#x2007;" horiz-adv-x="309" />
<glyph unicode="&#x2008;" horiz-adv-x="232" />
<glyph unicode="&#x2009;" horiz-adv-x="371" />
<glyph unicode="&#x200a;" horiz-adv-x="103" />
<glyph unicode="&#x2010;" horiz-adv-x="753" d="M143 481v158h449v-158h-449z" />
<glyph unicode="&#x2011;" horiz-adv-x="753" d="M143 481v158h449v-158h-449z" />
<glyph unicode="&#x2012;" horiz-adv-x="753" d="M143 481v158h449v-158h-449z" />
<glyph unicode="&#x2013;" horiz-adv-x="1343" d="M147 494v131h1045v-131h-1045z" />
<glyph unicode="&#x2014;" horiz-adv-x="2367" d="M147 494v131h2069v-131h-2069z" />
<glyph unicode="&#x2018;" horiz-adv-x="475" d="M197 1042q0 182 381 474l49 -60q-145 -123 -240 -287l98 -96q-16 -66 -60 -106.5t-103 -40.5q-55 0 -90 30.5t-35 85.5z" />
<glyph unicode="&#x2019;" horiz-adv-x="483" d="M162 930q145 123 239 287l-98 96q16 66 60.5 106.5t103.5 40.5q55 0 90 -30.5t35 -86.5q0 -182 -381 -473z" />
<glyph unicode="&#x201a;" horiz-adv-x="473" d="M-168 -291q145 123 240 287l-99 96q16 66 60.5 107t103.5 41q55 0 90 -31t35 -86q0 -182 -381 -473z" />
<glyph unicode="&#x201c;" horiz-adv-x="821" d="M199 1047q0 182 381 473l49 -60q-145 -123 -240 -286l98 -97q-16 -66 -60 -106.5t-103 -40.5q-55 0 -90 30.5t-35 86.5zM545 1047q0 182 381 473l49 -60q-145 -123 -240 -286l99 -97q-16 -66 -60.5 -106.5t-103.5 -40.5q-55 0 -90 30.5t-35 86.5z" />
<glyph unicode="&#x201d;" horiz-adv-x="829" d="M162 930q145 123 239 287l-98 96q16 66 60.5 106.5t103.5 40.5q55 0 90 -30.5t35 -86.5q0 -182 -381 -473zM508 930q145 123 240 287l-99 96q16 66 60.5 106.5t103.5 40.5q55 0 90 -30.5t35 -86.5q0 -182 -381 -473z" />
<glyph unicode="&#x201e;" horiz-adv-x="841" d="M-168 -291q145 123 240 287l-99 96q16 66 60.5 107t103.5 41q55 0 90 -31t35 -86q0 -182 -381 -473zM201 -291q145 123 239 287l-98 96q16 66 60 107t104 41q55 0 90 -31t35 -86q0 -182 -381 -473z" />
<glyph unicode="&#x2022;" horiz-adv-x="927" d="M193 735q0 125 92 214t219 89q125 0 214 -89t89 -214q0 -131 -89 -221t-214 -90q-127 0 -219 90t-92 221z" />
<glyph unicode="&#x202f;" horiz-adv-x="371" />
<glyph unicode="&#x2039;" horiz-adv-x="612" d="M82 520l16 66l385 356h97l-293 -389l98 -389h-96z" />
<glyph unicode="&#x203a;" horiz-adv-x="614" d="M10 164l293 389l-98 389h96l207 -356l-16 -66l-386 -356h-96z" />
<glyph unicode="&#x205f;" horiz-adv-x="464" />
<glyph unicode="&#x20ac;" horiz-adv-x="1390" d="M74 498l22 86l142 8l45 196h-138l23 86l147 9q102 276 306 421.5t493 145.5q186 0 330 -82l-107 -377h-82v314q-96 18 -176 18q-387 0 -555 -428l533 31l-53 -138h-517q-29 -96 -43 -184l506 31l-53 -137h-467v-43q0 -342 309 -342q92 0 183 18l235 332h78l-145 -377 q-193 -100 -381 -100q-236 0 -360 113.5t-124 334.5q0 41 2 64h-153z" />
<glyph unicode="&#xe000;" horiz-adv-x="1034" d="M0 0v1034h1034v-1034h-1034z" />
</font>
</defs>
</svg>
